<svg width="26" height="24" viewBox="0 0 26 24" fill="none" xmlns="http://www.w3.org/2000/svg">
<path d="M25 4.5C25 3.70435 24.6839 2.94129 24.1213 2.37868C23.5587 1.81607 22.7956 1.5 22 1.5H4C3.20435 1.5 2.44129 1.81607 1.87868 2.37868C1.31607 2.94129 1 3.70435 1 4.5L1 19.5C1 20.2956 1.31607 21.0587 1.87868 21.6213C2.44129 22.1839 3.20435 22.5 4 22.5H22C22.7956 22.5 23.5587 22.1839 24.1213 21.6213C24.6839 21.0587 25 20.2956 25 19.5V4.5ZM17.5 3V21H4C3.60218 21 3.22064 20.842 2.93934 20.5607C2.65804 20.2794 2.5 19.8978 2.5 19.5V4.5C2.5 4.10218 2.65804 3.72064 2.93934 3.43934C3.22064 3.15804 3.60218 3 4 3H17.5ZM19 3H22C22.3978 3 22.7794 3.15804 23.0607 3.43934C23.342 3.72064 23.5 4.10218 23.5 4.5V19.5C23.5 19.8978 23.342 20.2794 23.0607 20.5607C22.7794 20.842 22.3978 21 22 21H19V3Z" fill="white" stroke="white" stroke-width="0.436364"/>
</svg>
