<svg width="26" height="24" viewBox="0 0 26 24" fill="none" xmlns="http://www.w3.org/2000/svg">
<path d="M1 4.5C1 3.70435 1.31607 2.94129 1.87868 2.37868C2.44129 1.81607 3.20435 1.5 4 1.5H22C22.7956 1.5 23.5587 1.81607 24.1213 2.37868C24.6839 2.94129 25 3.70435 25 4.5V19.5C25 20.2956 24.6839 21.0587 24.1213 21.6213C23.5587 22.1839 22.7956 22.5 22 22.5H4C3.20435 22.5 2.44129 22.1839 1.87868 21.6213C1.31607 21.0587 1 20.2956 1 19.5V4.5ZM8.5 3V21H22C22.3978 21 22.7794 20.842 23.0607 20.5607C23.342 20.2794 23.5 19.8978 23.5 19.5V4.5C23.5 4.10218 23.342 3.72064 23.0607 3.43934C22.7794 3.15804 22.3978 3 22 3H8.5ZM7 3H4C3.60218 3 3.22064 3.15804 2.93934 3.43934C2.65804 3.72064 2.5 4.10218 2.5 4.5V19.5C2.5 19.8978 2.65804 20.2794 2.93934 20.5607C3.22064 20.842 3.60218 21 4 21H7V3Z" fill="white" stroke="white" stroke-width="0.436364"/>
</svg>
